<svg width="121" height="33" viewBox="0 0 121 33" fill="none" xmlns="http://www.w3.org/2000/svg">
<path d="M7.13643 25.9065C7.37045 25.961 7.58753 26.0164 7.80644 26.0631C8.01589 26.1078 8.22725 26.1436 8.44466 26.1845C8.4068 26.2949 8.32656 26.3166 8.2605 26.3543C7.50036 26.7873 6.68487 27.0673 5.82238 27.198C4.55535 27.3901 3.34964 27.7879 2.16001 28.2469C1.54439 28.4844 0.929685 28.7256 0.288743 28.8894C0.195457 28.9133 0.103403 28.9582 3.25442e-06 28.932C-0.000610734 28.8298 0.085792 28.8013 0.141222 28.7506C1.21196 27.7715 2.01055 26.621 2.39866 25.2057C2.69256 24.1339 2.56467 23.0901 2.22269 22.0552C2.02202 21.448 1.81231 20.8438 1.67222 20.2178C1.35049 18.7802 1.67792 17.5081 2.59334 16.3601C3.47054 15.26 4.59382 14.465 5.76529 13.7273C7.45223 12.6649 9.25044 11.8108 11.0414 10.9446C12.5064 10.236 13.9511 9.49284 15.2958 8.56836C16.5715 7.69138 17.7431 6.6995 18.7272 5.49844C19.068 5.08255 19.328 4.61342 19.5804 4.14056C19.607 4.09069 19.6146 4.02346 19.6986 4C19.8195 4.28615 19.8621 4.59273 19.9104 4.89389C19.9698 5.26422 20.0008 5.63816 20 6.01606C19.9961 7.73602 19.3826 9.19693 18.1583 10.4014C17.2342 11.3106 16.1497 11.9886 15.0018 12.5732C13.6222 13.2758 12.1806 13.8356 10.7482 14.4169C9.45577 14.9413 8.17013 15.4846 6.98036 16.2205C6.12984 16.7466 5.3332 17.3478 4.64575 18.0818C4.58287 18.1489 4.53122 18.2268 4.47722 18.3018C4.46303 18.3215 4.45957 18.3489 4.44501 18.3904C4.58446 18.3962 4.6618 18.3 4.74642 18.2423C6.242 17.2215 7.88538 16.498 9.56025 15.837C11.1823 15.1968 12.8472 14.6708 14.459 14.0042C15.9945 13.3691 17.4984 12.6723 18.8423 11.676C19.0387 11.5304 19.229 11.3767 19.4227 11.2275C19.4541 11.2033 19.4875 11.1798 19.5486 11.2042C19.5345 11.4922 19.4894 11.7828 19.4325 12.0699C19.1992 13.2489 18.7087 14.3044 17.8764 15.1815C17.2405 15.8515 16.4765 16.3467 15.6379 16.7255C14.4049 17.2824 13.1067 17.6332 11.7897 17.9214C10.4768 18.2088 9.15489 18.4626 7.89302 18.9439C7.02304 19.2757 6.20524 19.7007 5.4981 20.3166C5.36597 20.4316 5.23515 20.552 5.16316 20.722C5.25461 20.7783 5.31334 20.715 5.3708 20.6827C6.71934 19.9238 8.19081 19.5501 9.6986 19.2781C11.2272 19.0023 12.7727 18.8321 14.2968 18.5295C15.1769 18.3548 16.047 18.141 16.9004 17.8615C16.9661 17.84 17.0338 17.7957 17.1116 17.8397C17.1512 17.9078 17.1063 17.9669 17.0814 18.023C16.2184 19.9661 14.7291 21.1144 12.6454 21.4935C11.9234 21.6249 11.19 21.6325 10.4576 21.66C9.45792 21.6976 8.45019 21.689 7.47435 21.9655C6.74786 22.1713 6.07623 22.4852 5.50913 22.9962C5.44742 23.0518 5.37338 23.0995 5.35006 23.2122C5.61471 23.1122 5.86338 23.0126 6.11586 22.9239C6.8153 22.6781 7.5383 22.6117 8.27679 22.6079C9.13101 22.6036 9.97002 22.7466 10.8168 22.8108C11.3228 22.8492 11.8312 22.8578 12.3371 22.8978C12.7098 22.9273 13.0837 22.9295 13.456 22.9386C13.4707 23.0561 13.3991 23.107 13.3492 23.1621C12.4593 24.1433 11.3537 24.7264 10.0513 24.9486C9.2873 25.079 8.53045 25.0131 7.76728 24.9205C7.06048 24.8348 6.34637 24.7981 5.64299 24.9852C5.12914 25.1218 4.67498 25.3699 4.26792 25.7077C4.21455 25.7519 4.1449 25.7893 4.13797 25.9247C5.13833 25.5509 6.13044 25.6118 7.13643 25.9065Z" fill="black"/>
<path d="M49.5628 11.7743L44.8787 25.8265C44.7631 26.1928 44.5992 26.3759 44.3872 26.3759C44.233 26.3759 44.127 26.2506 44.0691 26C44.0113 25.7494 43.9053 25.4217 43.7511 25.0169L41.756 19.2052C41.6982 19.0124 41.6211 18.9161 41.5247 18.9161C41.4862 18.9161 41.4187 19.0124 41.3223 19.2052L38.6333 25.8265C38.5562 26.0193 38.4984 26.1542 38.4598 26.2313C38.4213 26.3277 38.3442 26.3759 38.2285 26.3759C38.0357 26.3759 37.7562 25.8554 37.39 24.8145L32.677 11.2828C32.4264 10.5888 32.2144 10.0298 32.0409 9.60574C31.8674 9.18167 31.6457 8.89253 31.3759 8.73832C31.2795 8.6805 31.1638 8.65158 31.0289 8.65158C30.9133 8.63231 30.8072 8.61303 30.7109 8.59375C30.5952 8.57448 30.4988 8.53592 30.4217 8.4781C30.3446 8.42027 30.3061 8.33353 30.3061 8.21787C30.3061 7.94801 30.5085 7.81307 30.9133 7.81307C31.0482 7.81307 31.347 7.85163 31.8096 7.92873C32.2722 7.98656 32.9372 8.01547 33.8047 8.01547C34.4215 8.01547 34.8938 7.9962 35.2214 7.95764C35.5491 7.89982 35.7419 7.8709 35.7997 7.8709C36.031 7.8709 36.1467 7.9962 36.1467 8.24678C36.1467 8.42027 36.0792 8.53592 35.9443 8.59375C35.8286 8.6323 35.6937 8.6805 35.5395 8.73832C35.4046 8.77688 35.2696 8.84434 35.1347 8.94072C35.0191 9.01783 34.9612 9.17203 34.9612 9.40335C34.9612 9.4419 34.9805 9.57683 35.0191 9.80814C35.0576 10.0395 35.1347 10.319 35.2504 10.6466L39.0381 21.5183C39.0959 21.6918 39.1538 21.7786 39.2116 21.7786C39.2887 21.7786 39.3562 21.6822 39.414 21.4894L40.8019 17.7017C40.879 17.4896 40.9175 17.3162 40.9175 17.1812C40.9175 16.9499 40.8886 16.7571 40.8308 16.6029L38.5755 10.0395C38.3056 9.22986 37.9876 8.76724 37.6213 8.65158C37.4093 8.59375 37.2165 8.56484 37.043 8.56484C36.8695 8.54556 36.7828 8.42991 36.7828 8.21787C36.7828 7.96728 36.9659 7.84199 37.3322 7.84199C37.6599 7.84199 38.0839 7.8709 38.6044 7.92873C39.1248 7.98656 39.7706 8.01547 40.5416 8.01547C40.985 8.01547 41.3223 7.9962 41.5536 7.95764C41.7849 7.89982 41.9391 7.8709 42.0162 7.8709C42.1897 7.8709 42.2765 7.98656 42.2765 8.21787C42.2765 8.41063 42.2186 8.53592 42.103 8.59375C41.9873 8.6323 41.862 8.67086 41.7271 8.70941C41.6114 8.74796 41.4958 8.81543 41.3801 8.91181C41.2645 8.98891 41.2067 9.14312 41.2067 9.37443C41.2067 9.52864 41.2259 9.7214 41.2645 9.95271C41.3223 10.1647 41.3994 10.4057 41.4958 10.6756L42.2765 12.9887C42.3536 13.2393 42.4307 13.3646 42.5078 13.3646C42.5656 13.3646 42.6524 13.2296 42.768 12.9598L43.8957 10.0395C43.9342 9.94307 43.9631 9.81778 43.9824 9.66357C44.0017 9.50936 44.0113 9.35516 44.0113 9.20095C44.0113 9.02746 43.9535 8.90217 43.8378 8.82506C43.7414 8.74796 43.6258 8.69013 43.4909 8.65158C43.3559 8.59375 43.2306 8.54556 43.115 8.50701C43.0186 8.44918 42.9704 8.34316 42.9704 8.18896C42.9704 7.93837 43.0764 7.81307 43.2885 7.81307C43.4041 7.81307 43.5872 7.84199 43.8378 7.89982C44.1077 7.93837 44.4547 7.95764 44.8787 7.95764C45.3414 7.95764 45.7172 7.93837 46.0064 7.89982C46.2955 7.86126 46.5076 7.84199 46.6425 7.84199C46.9509 7.84199 47.1051 7.95764 47.1051 8.18896C47.1051 8.34316 47.0666 8.44918 46.9895 8.50701C46.9124 8.54556 46.816 8.57448 46.7003 8.59375C46.5847 8.59375 46.4594 8.60339 46.3244 8.62267C46.1895 8.62267 46.0642 8.65158 45.9486 8.70941C45.7365 8.80579 45.5534 8.98891 45.3992 9.25877C45.2643 9.50936 45.1197 9.82742 44.9655 10.2129L43.1728 14.6079C43.1343 14.7043 43.0957 14.8006 43.0572 14.897C43.0186 14.9741 42.9993 15.0609 42.9993 15.1572C42.9993 15.2343 43.0186 15.3307 43.0572 15.4464L45.0233 21.5183C45.0811 21.6918 45.1486 21.7786 45.2257 21.7786C45.3221 21.7786 45.3992 21.6822 45.457 21.4894L48.7243 11.2538C48.84 10.8683 48.9267 10.5021 48.9845 10.1551C49.0424 9.80814 49.0713 9.55755 49.0713 9.40335C49.0713 9.11421 49.0134 8.92144 48.8978 8.82506C48.7821 8.72868 48.6472 8.66122 48.493 8.62267C48.3581 8.58411 48.2328 8.54556 48.1171 8.50701C48.0015 8.44918 47.9436 8.33353 47.9436 8.16004C47.9436 7.90945 48.0304 7.78416 48.2038 7.78416C48.3002 7.78416 48.493 7.81307 48.7821 7.8709C49.0905 7.92873 49.5146 7.95764 50.0543 7.95764C50.5748 7.95764 50.9892 7.93837 51.2976 7.89982C51.6061 7.86126 51.8181 7.84199 51.9338 7.84199C52.2422 7.84199 52.3964 7.95764 52.3964 8.18896C52.3964 8.36244 52.3482 8.46846 52.2518 8.50701C52.1554 8.54556 52.0301 8.57448 51.8759 8.59375C51.7217 8.61303 51.5482 8.65158 51.3555 8.70941C51.182 8.74796 51.0085 8.86362 50.835 9.05638C50.6808 9.21059 50.4881 9.519 50.2567 9.98163C50.0447 10.4443 49.8134 11.0418 49.5628 11.7743ZM54.2525 8.44918V14.4922C54.2525 14.7428 54.2718 14.8681 54.3104 14.8681C54.3682 14.8681 54.4453 14.8103 54.5417 14.6946L54.8308 14.3187C55.1971 13.8368 55.6308 13.4609 56.1319 13.1911C56.6331 12.9019 57.1536 12.7574 57.6933 12.7574C58.8499 12.7574 59.7462 13.1525 60.3823 13.9428C61.0377 14.7332 61.3654 15.8608 61.3654 17.3258V23.8025C61.3654 24.1109 61.3847 24.3519 61.4232 24.5254C61.4618 24.6989 61.5581 24.8338 61.7123 24.9302C61.8666 25.0458 62.0015 25.1229 62.1171 25.1615C62.2328 25.1808 62.3292 25.2097 62.4063 25.2482C62.5027 25.2675 62.5701 25.3061 62.6087 25.3639C62.6665 25.4217 62.6954 25.5277 62.6954 25.6819C62.6954 25.9518 62.5509 26.0867 62.2617 26.0867C62.0497 26.0867 61.7605 26.0578 61.3943 26C61.0473 25.9422 60.6329 25.9133 60.151 25.9133C59.6498 25.9133 59.1968 25.9422 58.792 26C58.4065 26.0578 58.0788 26.0867 57.809 26.0867C57.462 26.0867 57.2885 25.9325 57.2885 25.6241C57.2885 25.4892 57.3174 25.3928 57.3752 25.335C57.4331 25.2771 57.5102 25.2386 57.6066 25.2193C57.7029 25.2 57.809 25.1808 57.9246 25.1615C58.0595 25.1422 58.1945 25.1037 58.3294 25.0458C58.6185 24.9109 58.792 24.7567 58.8499 24.5832C58.9077 24.4097 58.9366 24.1495 58.9366 23.8025V17.9619C58.9366 15.6295 58.1752 14.4633 56.6524 14.4633C55.9585 14.4633 55.3802 14.7139 54.9175 15.2151C54.4742 15.7162 54.2525 16.4873 54.2525 17.5282V23.8025C54.2525 24.0917 54.2814 24.3326 54.3393 24.5254C54.3971 24.7181 54.5128 24.8724 54.6862 24.988C54.8212 25.0844 54.9561 25.1422 55.091 25.1615C55.226 25.1615 55.3416 25.1808 55.438 25.2193C55.5537 25.2386 55.6404 25.2771 55.6982 25.335C55.7753 25.3928 55.8139 25.5085 55.8139 25.6819C55.8139 25.9518 55.65 26.0867 55.3223 26.0867C55.1296 26.0867 54.8404 26.0578 54.4549 26C54.0694 25.9422 53.5971 25.9133 53.0381 25.9133C52.4791 25.9133 52.0069 25.9422 51.6214 26C51.2358 26.0578 50.9274 26.0867 50.6961 26.0867C50.3491 26.0867 50.1756 25.9325 50.1756 25.6241C50.1756 25.4892 50.2046 25.4024 50.2624 25.3639C50.3202 25.3061 50.3877 25.2675 50.4648 25.2482C50.5612 25.229 50.6672 25.2097 50.7828 25.1904C50.9178 25.1711 51.0623 25.1326 51.2166 25.0748C51.525 24.9591 51.6985 24.8145 51.737 24.641C51.7948 24.4483 51.8237 24.1688 51.8237 23.8025V9.37443C51.8237 8.95036 51.7563 8.65158 51.6214 8.4781C51.4864 8.30461 51.3418 8.18896 51.1876 8.13113C51.0334 8.05402 50.8889 8.00583 50.7539 7.98656C50.619 7.94801 50.5515 7.85163 50.5515 7.69742C50.5515 7.48538 50.6768 7.35045 50.9274 7.29262C51.1973 7.21552 51.5153 7.1095 51.8816 6.97457C52.5562 6.72398 53.0478 6.49267 53.3562 6.28063C53.6839 6.04932 53.8959 5.93366 53.9923 5.93366C54.1465 5.93366 54.2429 5.98185 54.2814 6.07823C54.32 6.17461 54.3393 6.30955 54.3393 6.48303C54.3393 6.75289 54.32 7.05167 54.2814 7.37936C54.2622 7.70706 54.2525 8.06366 54.2525 8.44918ZM65.1768 7.72633C65.5238 7.72633 65.8226 7.89018 66.0732 8.21787C66.3238 8.54556 66.4491 8.91181 66.4491 9.3166C66.4491 9.7214 66.3238 10.0876 66.0732 10.4153C65.8226 10.743 65.5238 10.9069 65.1768 10.9069C64.8299 10.9069 64.5311 10.743 64.2805 10.4153C64.0299 10.0876 63.9046 9.7214 63.9046 9.3166C63.9046 8.91181 64.0299 8.54556 64.2805 8.21787C64.5311 7.89018 64.8299 7.72633 65.1768 7.72633ZM66.2756 13.2778V23.8314C66.2756 24.1784 66.3045 24.4386 66.3623 24.6121C66.4394 24.7856 66.5647 24.9205 66.7382 25.0169C66.8924 25.094 67.037 25.1422 67.1719 25.1615C67.3261 25.1808 67.4514 25.2097 67.5478 25.2482C67.6634 25.2675 67.7502 25.3061 67.808 25.3639C67.8851 25.4217 67.9237 25.5181 67.9237 25.653C67.9237 25.9614 67.7502 26.1157 67.4032 26.1157C67.1141 26.1157 66.7671 26.0771 66.3623 26C65.9575 25.9422 65.5238 25.9133 65.0612 25.9133C64.56 25.9133 64.1359 25.9422 63.789 26C63.442 26.0771 63.1625 26.1157 62.9505 26.1157C62.6613 26.1157 62.5167 25.9518 62.5167 25.6241C62.5167 25.4892 62.536 25.3928 62.5746 25.335C62.6324 25.2771 62.6999 25.2386 62.777 25.2193C62.8734 25.2 62.9697 25.1904 63.0661 25.1904C63.1625 25.1711 63.2685 25.1326 63.3842 25.0748C63.5962 24.9591 63.7215 24.8242 63.76 24.67C63.8179 24.4965 63.8468 24.217 63.8468 23.8314V17.0077C63.8468 16.4873 63.7793 16.1403 63.6444 15.9668C63.5287 15.7933 63.3938 15.6873 63.2396 15.6488C63.1047 15.5909 62.9697 15.562 62.8348 15.562C62.7191 15.5428 62.6613 15.4367 62.6613 15.244C62.6613 15.0319 62.7866 14.8585 63.0372 14.7235C63.3071 14.5886 63.6829 14.3862 64.1648 14.1163C64.454 13.9428 64.6949 13.7694 64.8877 13.5959C65.0997 13.4224 65.2732 13.2682 65.4081 13.1333C65.5431 12.9983 65.6491 12.8923 65.7262 12.8152C65.8226 12.7188 65.9093 12.6706 65.9864 12.6706C66.1792 12.6706 66.2756 12.873 66.2756 13.2778ZM71.0089 11.1382V12.9019C71.0089 13.1525 71.1342 13.2778 71.3848 13.2778H73.5533C73.7268 13.2778 73.8328 13.2971 73.8714 13.3357C73.9099 13.3742 73.9292 13.4513 73.9292 13.567V14.1452C73.9292 14.2995 73.9099 14.4055 73.8714 14.4633C73.8328 14.5211 73.7268 14.55 73.5533 14.55H71.3559C71.1245 14.55 71.0089 14.6753 71.0089 14.9259V22.2412C71.0089 23.1471 71.086 23.8122 71.2402 24.2362C71.4137 24.641 71.7221 24.8434 72.1654 24.8434C72.3775 24.8434 72.5606 24.8049 72.7148 24.7278C72.8883 24.6507 73.0425 24.5639 73.1774 24.4676C73.3124 24.3519 73.428 24.2555 73.5244 24.1784C73.6401 24.1013 73.7461 24.0628 73.8425 24.0628C74.0352 24.0628 74.1316 24.1977 74.1316 24.4676C74.1316 24.6025 74.0449 24.7856 73.8714 25.0169C73.6979 25.2482 73.4569 25.4795 73.1485 25.7109C72.8594 25.9422 72.5124 26.1349 72.1076 26.2891C71.7221 26.4626 71.3077 26.5494 70.8643 26.5494C69.3222 26.5494 68.5512 25.3253 68.5512 22.8773V21.6629L68.6668 15.4464C68.6668 15.1765 68.6476 14.9645 68.609 14.8103C68.5705 14.6368 68.4548 14.55 68.2621 14.55H67.7416C67.3946 14.55 67.2211 14.4247 67.2211 14.1742C67.2211 14.0585 67.2693 13.9525 67.3657 13.8561C67.4621 13.7597 67.597 13.6537 67.7705 13.5381C67.944 13.4224 68.1368 13.2778 68.3488 13.1043C68.5801 12.9309 68.8307 12.6995 69.1006 12.4104C69.5632 11.8707 69.9005 11.4081 70.1125 11.0225C70.3439 10.637 70.5463 10.4443 70.7197 10.4443C70.8547 10.4443 70.9318 10.5117 70.9511 10.6466C70.9896 10.7623 71.0089 10.9262 71.0089 11.1382ZM78.5198 16.9499C79.4643 16.9499 80.1486 16.8439 80.5727 16.6319C81.016 16.4198 81.2377 15.9957 81.2377 15.3596C81.2377 14.8777 81.0353 14.4344 80.6305 14.0296C80.245 13.6248 79.7438 13.4224 79.127 13.4224C78.4523 13.4224 77.8644 13.6826 77.3632 14.2031C76.862 14.7235 76.5343 15.3789 76.3801 16.1692L76.2934 16.6319V16.6897C76.2934 16.8632 76.409 16.9499 76.6403 16.9499H78.5198ZM82.799 17.8462H76.409C76.2548 17.8462 76.1584 17.8752 76.1199 17.933C76.0813 17.9908 76.0621 18.1161 76.0621 18.3089V19.0028C76.0621 20.7955 76.4379 22.2123 77.1897 23.2532C77.9608 24.2941 78.9535 24.8145 80.1679 24.8145C80.7076 24.8145 81.1702 24.7278 81.5557 24.5543C81.9605 24.3808 82.2882 24.1881 82.5388 23.976C82.8087 23.764 83.0111 23.5712 83.146 23.3977C83.3002 23.2243 83.4062 23.1375 83.4641 23.1375C83.6183 23.1375 83.6954 23.2435 83.6954 23.4556C83.6954 23.6676 83.5797 23.9471 83.3484 24.2941C83.1171 24.641 82.7798 24.988 82.3364 25.335C81.9123 25.6627 81.4015 25.9518 80.804 26.2024C80.2064 26.453 79.5317 26.5783 78.78 26.5783C77.9897 26.5783 77.2668 26.4144 76.6114 26.0867C75.9753 25.7783 75.426 25.3253 74.9633 24.7278C74.5007 24.1302 74.1441 23.4074 73.8935 22.5592C73.6429 21.7111 73.5176 20.7569 73.5176 19.6967C73.5176 18.6366 73.6526 17.6824 73.9224 16.8343C74.2116 15.9668 74.6067 15.2343 75.1079 14.6368C75.6091 14.0392 76.197 13.5766 76.8717 13.2489C77.5656 12.9212 78.3174 12.7574 79.127 12.7574C79.8209 12.7574 80.457 12.8827 81.0353 13.1333C81.6136 13.3646 82.1051 13.6826 82.5099 14.0874C82.9147 14.4922 83.2231 14.9645 83.4351 15.5042C83.6665 16.0439 83.7821 16.6222 83.7821 17.239C83.7821 17.4896 83.705 17.6535 83.5508 17.7306C83.3966 17.8077 83.146 17.8462 82.799 17.8462ZM86.9981 8.44918V14.6946C86.9981 14.8103 87.0174 14.8681 87.0559 14.8681C87.1138 14.8681 87.1909 14.8199 87.2873 14.7235L87.6342 14.3766C88.174 13.8176 88.6751 13.4128 89.1378 13.1622C89.6197 12.8923 90.1787 12.7574 90.8148 12.7574C91.4509 12.7574 92.0581 12.9116 92.6364 13.22C93.2146 13.5284 93.7158 13.9718 94.1399 14.55C94.564 15.109 94.9013 15.7933 95.1519 16.6029C95.4025 17.4125 95.5278 18.3089 95.5278 19.2919C95.5278 20.3714 95.3832 21.3545 95.094 22.2412C94.8049 23.1279 94.3905 23.8893 93.8507 24.5254C93.3303 25.1615 92.7038 25.653 91.9713 26C91.2581 26.3662 90.4678 26.5494 89.6004 26.5494C89.0799 26.5494 88.6269 26.5012 88.2414 26.4048C87.8559 26.3084 87.5186 26.1928 87.2294 26.0578C86.9403 25.9422 86.6897 25.8362 86.4777 25.7398C86.2849 25.6434 86.1211 25.5952 85.9861 25.5952C85.8319 25.5952 85.697 25.6723 85.5813 25.8265C85.485 25.9807 85.3886 26.1542 85.2922 26.347C85.1958 26.5397 85.0898 26.7132 84.9741 26.8674C84.8778 27.0216 84.7717 27.0987 84.6561 27.0987C84.444 27.0987 84.338 26.9156 84.338 26.5494C84.338 26.0867 84.3766 25.5374 84.4537 24.9013C84.5308 24.2459 84.5693 23.523 84.5693 22.7327V8.96963C84.5693 8.71905 84.5019 8.53592 84.3669 8.42027C84.232 8.30461 84.0778 8.21787 83.9043 8.16004C83.7501 8.08294 83.6055 8.01547 83.4706 7.95764C83.3357 7.89982 83.2682 7.81307 83.2682 7.69742C83.2682 7.48538 83.3935 7.35045 83.6441 7.29262C83.914 7.21552 84.232 7.1095 84.5983 6.97457C85.2729 6.72398 85.7645 6.49267 86.0729 6.28063C86.4006 6.04932 86.6126 5.93366 86.709 5.93366C86.8632 5.93366 86.9596 5.98185 86.9981 6.07823C87.0367 6.17461 87.0559 6.30955 87.0559 6.48303C87.0559 6.77217 87.0463 7.08059 87.027 7.40828C87.0078 7.71669 86.9981 8.06366 86.9981 8.44918ZM86.9981 22.964C86.9981 23.8893 87.2005 24.5736 87.6053 25.0169C88.0294 25.4603 88.6077 25.6819 89.3402 25.6819C89.8992 25.6819 90.41 25.547 90.8726 25.2771C91.3352 25.0073 91.7304 24.6314 92.0581 24.1495C92.405 23.6483 92.6653 23.0604 92.8388 22.3857C93.0315 21.6918 93.1279 20.94 93.1279 20.1305C93.1279 18.3956 92.7617 17.0656 92.0292 16.1403C91.3159 15.1958 90.41 14.7235 89.3112 14.7235C88.7522 14.7235 88.3185 14.8199 88.0101 15.0127C87.7017 15.2054 87.4704 15.4753 87.3162 15.8223C87.162 16.1692 87.0656 16.5933 87.027 17.0945C87.0078 17.5764 86.9981 18.1161 86.9981 18.7137V22.964ZM98.1343 7.72633C98.4813 7.72633 98.7801 7.89018 99.0306 8.21787C99.2812 8.54556 99.4065 8.91181 99.4065 9.3166C99.4065 9.7214 99.2812 10.0876 99.0306 10.4153C98.7801 10.743 98.4813 10.9069 98.1343 10.9069C97.7873 10.9069 97.4886 10.743 97.238 10.4153C96.9874 10.0876 96.8621 9.7214 96.8621 9.3166C96.8621 8.91181 96.9874 8.54556 97.238 8.21787C97.4886 7.89018 97.7873 7.72633 98.1343 7.72633ZM99.233 13.2778V23.8314C99.233 24.1784 99.262 24.4386 99.3198 24.6121C99.3969 24.7856 99.5222 24.9205 99.6957 25.0169C99.8499 25.094 99.9944 25.1422 100.129 25.1615C100.284 25.1808 100.409 25.2097 100.505 25.2482C100.621 25.2675 100.708 25.3061 100.765 25.3639C100.843 25.4217 100.881 25.5181 100.881 25.653C100.881 25.9614 100.708 26.1157 100.361 26.1157C100.072 26.1157 99.7246 26.0771 99.3198 26C98.915 25.9422 98.4813 25.9133 98.0187 25.9133C97.5175 25.9133 97.0934 25.9422 96.7464 26C96.3995 26.0771 96.12 26.1157 95.9079 26.1157C95.6188 26.1157 95.4742 25.9518 95.4742 25.6241C95.4742 25.4892 95.4935 25.3928 95.532 25.335C95.5899 25.2771 95.6573 25.2386 95.7344 25.2193C95.8308 25.2 95.9272 25.1904 96.0236 25.1904C96.12 25.1711 96.226 25.1326 96.3416 25.0748C96.5537 24.9591 96.679 24.8242 96.7175 24.67C96.7754 24.4965 96.8043 24.217 96.8043 23.8314V17.0077C96.8043 16.4873 96.7368 16.1403 96.6019 15.9668C96.4862 15.7933 96.3513 15.6873 96.1971 15.6488C96.0621 15.5909 95.9272 15.562 95.7923 15.562C95.6766 15.5428 95.6188 15.4367 95.6188 15.244C95.6188 15.0319 95.7441 14.8585 95.9947 14.7235C96.2645 14.5886 96.6404 14.3862 97.1223 14.1163C97.4115 13.9428 97.6524 13.7694 97.8452 13.5959C98.0572 13.4224 98.2307 13.2682 98.3656 13.1333C98.5006 12.9983 98.6066 12.8923 98.6837 12.8152C98.7801 12.7188 98.8668 12.6706 98.9439 12.6706C99.1367 12.6706 99.233 12.873 99.233 13.2778ZM104.082 13.2778V14.4055C104.082 14.579 104.111 14.6657 104.169 14.6657C104.207 14.6657 104.294 14.5982 104.429 14.4633L105.007 13.8272C105.624 13.0947 106.279 12.7285 106.973 12.7285C107.494 12.7285 107.937 12.9212 108.303 13.3067C108.67 13.6923 108.853 14.1742 108.853 14.7524C108.853 15.1765 108.718 15.5235 108.448 15.7933C108.197 16.0632 107.889 16.1981 107.523 16.1981C107.234 16.1981 106.983 16.1307 106.771 15.9957C106.559 15.8415 106.366 15.6777 106.193 15.5042C106.019 15.3307 105.855 15.1765 105.701 15.0416C105.547 14.8874 105.393 14.8103 105.239 14.8103C104.525 14.8103 104.169 15.7162 104.169 17.5282V23.8025C104.169 24.1302 104.207 24.3808 104.284 24.5543C104.362 24.7085 104.516 24.8338 104.747 24.9302C104.978 25.0458 105.19 25.1229 105.383 25.1615C105.576 25.1808 105.73 25.2097 105.846 25.2482C105.981 25.2675 106.087 25.3061 106.164 25.3639C106.241 25.4217 106.279 25.5277 106.279 25.6819C106.279 25.7976 106.222 25.9036 106.106 26C106.01 26.0771 105.855 26.1157 105.643 26.1157C105.258 26.1157 104.834 26.0771 104.371 26C103.928 25.9422 103.456 25.9133 102.954 25.9133C102.492 25.9133 102.058 25.9422 101.653 26C101.268 26.0578 100.921 26.0867 100.612 26.0867C100.265 26.0867 100.092 25.9325 100.092 25.6241C100.092 25.4892 100.121 25.4024 100.179 25.3639C100.236 25.3061 100.314 25.2675 100.41 25.2482C100.506 25.2097 100.622 25.1808 100.757 25.1615C100.892 25.1422 101.036 25.094 101.191 25.0169C101.46 24.882 101.615 24.7471 101.653 24.6121C101.711 24.4579 101.74 24.2459 101.74 23.976V16.574C101.74 16.2271 101.673 15.9957 101.538 15.8801C101.422 15.7644 101.287 15.6873 101.133 15.6488C100.998 15.6102 100.863 15.5813 100.728 15.562C100.612 15.5235 100.555 15.4175 100.555 15.244C100.555 15.0319 100.68 14.8777 100.93 14.7814C101.181 14.6657 101.509 14.4729 101.913 14.2031C102.472 13.8176 102.877 13.4706 103.128 13.1622C103.398 12.8345 103.619 12.6706 103.793 12.6706C103.986 12.6706 104.082 12.873 104.082 13.2778ZM118.787 8.44918V23.3977C118.787 24.1688 118.922 24.5543 119.192 24.5543C119.384 24.5543 119.548 24.4676 119.683 24.2941C119.837 24.1013 119.963 24.0049 120.059 24.0049C120.098 24.0049 120.146 24.0531 120.204 24.1495C120.261 24.2266 120.29 24.3423 120.29 24.4965C120.29 24.8242 120.223 25.0362 120.088 25.1326C119.953 25.2097 119.78 25.2868 119.568 25.3639C118.854 25.6145 118.286 25.8651 117.862 26.1157C117.457 26.3662 117.177 26.4915 117.023 26.4915C116.927 26.4915 116.84 26.4241 116.763 26.2891C116.705 26.1735 116.657 26.0386 116.618 25.8843C116.58 25.7109 116.541 25.5663 116.503 25.4506C116.464 25.3157 116.416 25.2482 116.358 25.2482C116.32 25.2482 116.223 25.3157 116.069 25.4506C115.915 25.5856 115.703 25.7398 115.433 25.9133C115.182 26.0675 114.874 26.212 114.508 26.347C114.141 26.4819 113.717 26.5494 113.235 26.5494C112.503 26.5494 111.819 26.3855 111.182 26.0578C110.546 25.7494 109.978 25.3061 109.477 24.7278C108.995 24.1495 108.609 23.4556 108.32 22.646C108.05 21.8171 107.915 20.8919 107.915 19.8702C107.915 18.8293 108.069 17.8752 108.378 17.0077C108.705 16.121 109.13 15.3693 109.65 14.7524C110.19 14.1163 110.816 13.6248 111.529 13.2778C112.243 12.9309 113.004 12.7574 113.814 12.7574C114.199 12.7574 114.565 12.7959 114.912 12.873C115.259 12.9309 115.539 12.9983 115.751 13.0754L116.127 13.22H116.185C116.3 13.22 116.358 13.0754 116.358 12.7863V8.96963C116.358 8.71905 116.291 8.53592 116.156 8.42027C116.021 8.30461 115.876 8.21787 115.722 8.16004C115.568 8.08294 115.423 8.01547 115.288 7.95764C115.153 7.89982 115.086 7.81307 115.086 7.69742C115.086 7.48538 115.211 7.35045 115.462 7.29262C115.732 7.21552 116.05 7.1095 116.416 6.97457C117.091 6.72398 117.582 6.49267 117.89 6.28063C118.218 6.04932 118.43 5.93366 118.527 5.93366C118.681 5.93366 118.777 5.98185 118.816 6.07823C118.854 6.17461 118.874 6.30955 118.874 6.48303C118.874 6.75289 118.854 7.05167 118.816 7.37936C118.796 7.70706 118.787 8.06366 118.787 8.44918ZM116.358 17.933C116.358 17.2583 116.339 16.6608 116.3 16.1403C116.281 15.6006 116.194 15.1476 116.04 14.7814C115.905 14.3958 115.693 14.1067 115.404 13.9139C115.115 13.7019 114.71 13.5959 114.19 13.5959C113.688 13.5959 113.216 13.7405 112.773 14.0296C112.349 14.3187 111.963 14.7332 111.616 15.2729C111.288 15.7933 111.028 16.4391 110.835 17.2101C110.643 17.9812 110.546 18.839 110.546 19.7835C110.546 21.499 110.913 22.8387 111.645 23.8025C112.378 24.7471 113.38 25.2193 114.652 25.2193C115.057 25.2193 115.375 25.1711 115.606 25.0748C115.838 24.9591 116.011 24.7952 116.127 24.5832C116.242 24.3712 116.31 24.1206 116.329 23.8314C116.348 23.5423 116.358 23.205 116.358 22.8195V17.933Z" fill="black"/>
</svg>
