<svg width="18" height="23" viewBox="0 0 18 23" fill="none" xmlns="http://www.w3.org/2000/svg">
<path d="M6.42278 19.7158C6.63341 19.7649 6.82877 19.8147 7.0258 19.8568C7.2143 19.897 7.40452 19.9292 7.6002 19.9661C7.56612 20.0654 7.4939 20.085 7.43445 20.1188C6.75032 20.5086 6.01638 20.7605 5.24014 20.8782C4.09981 21.0511 3.01468 21.4091 1.94401 21.8222C1.38995 22.0359 0.836717 22.2531 0.259869 22.4005C0.175911 22.422 0.0930628 22.4624 2.92898e-06 22.4388C-0.000549661 22.3468 0.0772128 22.3212 0.1271 22.2756C1.09077 21.3944 1.80949 20.3589 2.1588 19.0851C2.42331 18.1205 2.30821 17.1811 2.00042 16.2497C1.81982 15.7032 1.63108 15.1594 1.50499 14.596C1.21544 13.3021 1.51013 12.1573 2.33401 11.1241C3.12349 10.134 4.13444 9.41852 5.18876 8.75454C6.70701 7.7984 8.3254 7.02974 9.93728 6.25015C11.2558 5.61244 12.556 4.94355 13.7662 4.11152C14.9144 3.32224 15.9688 2.42955 16.8545 1.3486C17.1612 0.974297 17.3952 0.552076 17.6223 0.126508C17.6463 0.0816242 17.6531 0.0211172 17.7288 0C17.8376 0.257539 17.8759 0.533453 17.9194 0.804505C17.9728 1.1378 18.0008 1.47435 18 1.81445C17.9965 3.36242 17.4444 4.67724 16.3425 5.76129C15.5108 6.57953 14.5347 7.18971 13.5016 7.71587C12.2599 8.34826 10.9626 8.85206 9.67339 9.37518C8.51019 9.84718 7.35312 10.3361 6.28232 10.9984C5.51685 11.4719 4.79988 12.013 4.18118 12.6736C4.12458 12.734 4.0781 12.8042 4.0295 12.8716C4.01673 12.8894 4.01361 12.914 4.00051 12.9513C4.12602 12.9565 4.19562 12.87 4.27178 12.818C5.6178 11.8994 7.09685 11.2482 8.60422 10.6533C10.064 10.0771 11.5624 9.60376 13.0131 9.00376C14.395 8.43221 15.7486 7.80511 16.9581 6.90836C17.1348 6.77733 17.3061 6.639 17.4805 6.50473C17.5087 6.48302 17.5388 6.46181 17.5938 6.48379C17.581 6.74298 17.5404 7.0045 17.4893 7.26295C17.2793 8.32399 16.8378 9.27395 16.0887 10.0634C15.5165 10.6664 14.8288 11.112 14.0741 11.4529C12.9644 11.9541 11.796 12.2699 10.6108 12.5293C9.4291 12.788 8.2394 13.0163 7.10372 13.4495C6.32073 13.7481 5.58471 14.1307 4.94829 14.6849C4.82937 14.7885 4.71163 14.8968 4.64684 15.0498C4.72915 15.1005 4.782 15.0435 4.83372 15.0144C6.04741 14.3314 7.37173 13.9951 8.72874 13.7503C10.1045 13.5021 11.4955 13.3489 12.8671 13.0766C13.6592 12.9193 14.4423 12.7269 15.2104 12.4754C15.2695 12.456 15.3304 12.4161 15.4004 12.4557C15.4361 12.517 15.3957 12.5702 15.3733 12.6207C14.5965 14.3695 13.2562 15.4029 11.3809 15.7441C10.7311 15.8624 10.071 15.8692 9.41182 15.894C8.51213 15.9278 7.60517 15.9201 6.72692 16.1689C6.07308 16.3542 5.46861 16.6366 4.95822 17.0966C4.90268 17.1466 4.83605 17.1896 4.81506 17.291C5.05324 17.201 5.27704 17.1113 5.50428 17.0315C6.13377 16.8103 6.78447 16.7505 7.44911 16.7471C8.21791 16.7432 8.97302 16.872 9.7351 16.9297C10.1906 16.9642 10.6481 16.972 11.1034 17.008C11.4388 17.0345 11.7753 17.0366 12.1104 17.0447C12.1236 17.1505 12.0592 17.1963 12.0142 17.2459C11.2133 18.129 10.2183 18.6537 9.04616 18.8538C8.35857 18.9711 7.67741 18.9118 6.99056 18.8285C6.35444 18.7513 5.71173 18.7183 5.07869 18.8867C4.61622 19.0096 4.20748 19.2329 3.84112 19.5369C3.79309 19.5767 3.73041 19.6104 3.72417 19.7323C4.6245 19.3958 5.5174 19.4506 6.42278 19.7158Z" fill="black"/>
<path d="M6.42278 19.7158C6.63341 19.7649 6.82877 19.8147 7.0258 19.8568C7.2143 19.897 7.40452 19.9292 7.6002 19.9661C7.56612 20.0654 7.4939 20.085 7.43445 20.1188C6.75032 20.5086 6.01638 20.7605 5.24014 20.8782C4.09981 21.0511 3.01468 21.4091 1.94401 21.8222C1.38995 22.0359 0.836717 22.2531 0.259869 22.4005C0.175911 22.422 0.0930628 22.4624 2.92898e-06 22.4388C-0.000549661 22.3468 0.0772128 22.3212 0.1271 22.2756C1.09077 21.3944 1.80949 20.3589 2.1588 19.0851C2.42331 18.1205 2.30821 17.1811 2.00042 16.2497C1.81982 15.7032 1.63108 15.1594 1.50499 14.596C1.21544 13.3021 1.51013 12.1573 2.33401 11.1241C3.12349 10.134 4.13444 9.41852 5.18876 8.75454C6.70701 7.7984 8.3254 7.02974 9.93728 6.25015C11.2558 5.61244 12.556 4.94355 13.7662 4.11152C14.9144 3.32224 15.9688 2.42955 16.8545 1.3486C17.1612 0.974297 17.3952 0.552076 17.6223 0.126508C17.6463 0.0816242 17.6531 0.0211172 17.7288 0C17.8376 0.257539 17.8759 0.533453 17.9194 0.804505C17.9728 1.1378 18.0008 1.47435 18 1.81445C17.9965 3.36242 17.4444 4.67724 16.3425 5.76129C15.5108 6.57953 14.5347 7.18971 13.5016 7.71587C12.2599 8.34826 10.9626 8.85206 9.67339 9.37518C8.51019 9.84718 7.35312 10.3361 6.28232 10.9984C5.51685 11.4719 4.79988 12.013 4.18118 12.6736C4.12458 12.734 4.0781 12.8042 4.0295 12.8716C4.01673 12.8894 4.01361 12.914 4.00051 12.9513C4.12602 12.9565 4.19562 12.87 4.27178 12.818C5.6178 11.8994 7.09685 11.2482 8.60422 10.6533C10.064 10.0771 11.5624 9.60376 13.0131 9.00376C14.395 8.43221 15.7486 7.80511 16.9581 6.90836C17.1348 6.77733 17.3061 6.639 17.4805 6.50473C17.5087 6.48302 17.5388 6.46181 17.5938 6.48379C17.581 6.74298 17.5404 7.0045 17.4893 7.26295C17.2793 8.32399 16.8378 9.27395 16.0887 10.0634C15.5165 10.6664 14.8288 11.112 14.0741 11.4529C12.9644 11.9541 11.796 12.2699 10.6108 12.5293C9.4291 12.788 8.2394 13.0163 7.10372 13.4495C6.32073 13.7481 5.58471 14.1307 4.94829 14.6849C4.82937 14.7885 4.71163 14.8968 4.64684 15.0498C4.72915 15.1005 4.782 15.0435 4.83372 15.0144C6.04741 14.3314 7.37173 13.9951 8.72874 13.7503C10.1045 13.5021 11.4955 13.3489 12.8671 13.0766C13.6592 12.9193 14.4423 12.7269 15.2104 12.4754C15.2695 12.456 15.3304 12.4161 15.4004 12.4557C15.4361 12.517 15.3957 12.5702 15.3733 12.6207C14.5965 14.3695 13.2562 15.4029 11.3809 15.7441C10.7311 15.8624 10.071 15.8692 9.41182 15.894C8.51213 15.9278 7.60517 15.9201 6.72692 16.1689C6.07308 16.3542 5.46861 16.6366 4.95822 17.0966C4.90268 17.1466 4.83605 17.1896 4.81506 17.291C5.05324 17.201 5.27704 17.1113 5.50428 17.0315C6.13377 16.8103 6.78447 16.7505 7.44911 16.7471C8.21791 16.7432 8.97302 16.872 9.7351 16.9297C10.1906 16.9642 10.6481 16.972 11.1034 17.008C11.4388 17.0345 11.7753 17.0366 12.1104 17.0447C12.1236 17.1505 12.0592 17.1963 12.0142 17.2459C11.2133 18.129 10.2183 18.6537 9.04616 18.8538C8.35857 18.9711 7.67741 18.9118 6.99056 18.8285C6.35444 18.7513 5.71173 18.7183 5.07869 18.8867C4.61622 19.0096 4.20748 19.2329 3.84112 19.5369C3.79309 19.5767 3.73041 19.6104 3.72417 19.7323C4.6245 19.3958 5.5174 19.4506 6.42278 19.7158Z" fill="black"/>
</svg>
